<svg width="37" height="37" viewBox="0 0 37 37" fill="none" xmlns="http://www.w3.org/2000/svg">
<rect width="36.9231" height="36.9231" rx="18.4615" fill="white"/>
<path d="M16.4615 10V15.6L11.7615 23.2C11.0615 24.4 11.8615 26 13.2615 26H23.6615C25.0615 26 25.8615 24.4 25.1615 23.2L20.4615 15.6V10" stroke="black" stroke-linecap="round" stroke-linejoin="round"/>
<path d="M14.4615 10H22.4615" stroke="black" stroke-linecap="round" stroke-linejoin="round"/>
<path d="M13.1815 21.0002H23.7415" stroke="black" stroke-linecap="round" stroke-linejoin="round"/>
<path d="M16.4615 24C17.0138 24 17.4615 23.5523 17.4615 23C17.4615 22.4477 17.0138 22 16.4615 22C15.9093 22 15.4615 22.4477 15.4615 23C15.4615 23.5523 15.9093 24 16.4615 24Z" fill="black"/>
<path d="M20.4615 23.0002C21.0138 23.0002 21.4615 22.5525 21.4615 22.0002C21.4615 21.448 21.0138 21.0002 20.4615 21.0002C19.9093 21.0002 19.4615 21.448 19.4615 22.0002C19.4615 22.5525 19.9093 23.0002 20.4615 23.0002Z" fill="black"/>
</svg>
